# xmcd CD database file
#
# Track frame offsets:
#	150
#	26873
#	51922
#	84314
#	110901
#	136443
#	159988
#	177892
#	209795
#	237240
#	276985
#	307168
#
# Disc length: 4215 seconds
#
# Revision: 0
# Processed by: cddbd v1.5.2PL0 Copyright (c) Steve Scherf et al.
# Submitted via: CDex 1.51
#
DISCID=b510750c
DTITLE=GTO - Legendary Songs
DYEAR=2008
DGENRE=Jazz
TTITLE0=Besame Mucho
TTITLE1=Multiple
TTITLE2=Mielikki Sings
TTITLE3=On Green Dolphin Street
TTITLE4=The Girl From Ipanema
TTITLE5=Sister's Eye
TTITLE6=Four
TTITLE7=You Don't Know What Love Is
TTITLE8=Grue
TTITLE9=Charade
TTITLE10=Chorokee
TTITLE11=Billy Boy
EXTD=YEAR: 2008
EXTT0=
EXTT1=
EXTT2=
EXTT3=
EXTT4=
EXTT5=
EXTT6=
EXTT7=
EXTT8=
EXTT9=
EXTT10=
EXTT11=
PLAYORDER=
